<?xml version="1.0" encoding="iso-8859-1"?>
<!-- Generator: Adobe Illustrator 19.0.0, SVG Export Plug-In . SVG Version: 6.00 Build 0)  -->
<svg version="1.1" id="Layer_1" xmlns="http://www.w3.org/2000/svg" xmlns:xlink="http://www.w3.org/1999/xlink" x="0px" y="0px"
	 viewBox="0 0 503.53 503.53" style="enable-background:new 0 0 503.53 503.53;" xml:space="preserve">
<g>
	<polygon style="fill:#464656;" points="156.308,416.542 161.263,416.542 164.144,409.826 161.358,387.515 121.596,381.831 
		95.562,407.864 112.649,447.731 	"/>
	<path style="fill:#C7CFE3;" d="M277.799,350.274V183.596c-10.24-6.361-22.085-9.954-34.712-10.04
		c-12.618,0.139-24.368,3.428-34.712,9.407V362.9L277.799,350.274z"/>
	<polygon style="fill:#BD8366;" points="225.731,147.525 260.443,147.525 260.443,34.712 225.731,34.712 	"/>
	<g>
		<path style="fill:#D69C77;" d="M220.159,0h45.854c6.508,0,11.785,5.276,11.785,11.785v11.143c0,6.508-5.276,11.785-11.785,11.785
			h-45.854c-6.508,0-11.785-5.276-11.785-11.785V11.785C208.374,5.276,213.651,0,220.159,0"/>
		<path style="fill:#D69C77;" d="M242.638,138.845h0.686c20.367,0.139,40.136,6.396,56.598,17.608
			c9.303,6.335,10.596,19.525,2.386,27.223c-5.884,5.511-14.865,6.344-21.469,1.718c-10.873-7.611-23.89-11.741-37.749-11.837
			c-14.501,0.156-27.969,4.244-39.329,12.097c-6.639,4.582-15.655,3.593-21.469-2.013l-0.026-0.026
			c-7.741-7.454-7.107-20.367,1.744-26.468C201.105,145.353,221.62,138.845,242.638,138.845"/>
	</g>
	<path style="fill:#AFB5CB;" d="M243.087,364.475c-4.79,0-8.678-3.888-8.678-8.678v-130.17c0-4.79,3.888-8.678,8.678-8.678
		s8.678,3.888,8.678,8.678v130.17C251.765,360.587,247.877,364.475,243.087,364.475"/>
	<polygon style="fill:#2E2E3A;" points="86.884,503.322 86.884,459.932 147.63,416.542 208.375,416.542 243.087,451.254 
		243.087,503.53 	"/>
	<polygon style="fill:#464656;" points="381.935,425.22 329.867,416.542 243.087,451.254 243.087,503.53 416.647,503.322 	"/>
	<polygon style="fill:#5B5D6F;" points="327.75,417.388 312.512,381.826 295.156,347.114 199.698,364.47 156.308,355.792 
		156.308,416.538 208.376,416.538 243.088,451.25 	"/>
	<polygon style="fill:#2E2E3A;" points="355.901,355.797 303.252,363.32 312.511,381.831 327.585,417.002 328.313,417.159 
		329.867,416.542 364.579,422.331 381.935,381.831 	"/>
</g>
<g>
</g>
<g>
</g>
<g>
</g>
<g>
</g>
<g>
</g>
<g>
</g>
<g>
</g>
<g>
</g>
<g>
</g>
<g>
</g>
<g>
</g>
<g>
</g>
<g>
</g>
<g>
</g>
<g>
</g>
</svg>
