<?xml version="1.0"?>
<svg xmlns="http://www.w3.org/2000/svg" xmlns:xlink="http://www.w3.org/1999/xlink" version="1.1" id="Capa_1" x="0px" y="0px" viewBox="0 0 512 512" style="enable-background:new 0 0 512 512;" xml:space="preserve" width="512px" height="512px" class=""><g><g>
	<g>
		<g>
			<path d="M511.06,89.056c0.403-1.061,0.689-2.164,0.853-3.288c0.008-0.152,0.088-0.281,0.088-0.435V42.667     C511.972,19.114,492.886,0.028,469.333,0H42.667C19.114,0.028,0.028,19.114,0,42.667v42.667c0,0.154,0.08,0.283,0.088,0.435     c0.055,0.566,0.168,1.125,0.336,1.668c0.116,0.556,0.289,1.098,0.515,1.619c0.067,0.137,0.06,0.289,0.135,0.424L36.698,153.6     h-2.565C15.29,153.62,0.02,168.89,0,187.733v256c0.046,15.521,10.568,29.053,25.6,32.922v18.278     c0.011,9.421,7.646,17.056,17.067,17.067H102.4c9.421-0.011,17.056-7.645,17.067-17.067v-17.067h273.067v17.067     c0.011,9.421,7.646,17.056,17.067,17.067h59.733c9.421-0.011,17.056-7.645,17.067-17.067v-18.278     c15.032-3.868,25.554-17.4,25.6-32.922v-256c-0.02-18.843-15.29-34.113-34.133-34.133h-2.565l35.623-64.121     C511,89.344,510.993,89.193,511.06,89.056z M392.533,17.067h51.2V76.8h-51.2V17.067z M136.533,17.067h238.933V76.8H307.2V59.733     c-0.015-14.132-11.468-25.585-25.6-25.6h-51.2c-14.132,0.015-25.585,11.468-25.6,25.6V76.8h-68.267V17.067z M290.133,59.733V76.8     h-68.267V59.733c0.005-4.711,3.822-8.529,8.533-8.533h51.2C286.311,51.205,290.129,55.022,290.133,59.733z M68.267,17.067h51.2     V76.8h-51.2V17.067z M17.067,42.667c0.015-14.132,11.468-25.585,25.6-25.6H51.2V76.8H17.067V42.667z M34.133,460.8     c-9.421-0.011-17.056-7.646-17.067-17.067v-256c0.011-9.421,7.646-17.056,17.067-17.067H51.2V460.8H34.133z M42.667,494.933     v-17.067H102.4l0.009,17.067H42.667z M68.267,460.8V170.667H102.4V460.8H68.267z M392.533,460.8H119.467V170.667H204.8v96.519     c-23.734,21.228-31.906,54.901-20.544,84.647c11.362,29.746,39.902,49.396,71.744,49.396s60.382-19.65,71.744-49.396     c11.362-29.746,3.19-63.419-20.544-84.647v-96.519h85.333V460.8z M256,264.533c32.99,0,59.733,26.744,59.733,59.733     S288.99,384,256,384s-59.733-26.744-59.733-59.733C196.305,291.293,223.026,264.572,256,264.533z M221.867,255.57v-84.904h68.267     v84.904C268.66,244.766,243.34,244.766,221.867,255.57z M409.6,494.933v-17.067h59.733l0.008,17.067H409.6z M409.6,460.8V170.667     h34.133V460.8H409.6z M477.867,170.667c9.421,0.011,17.056,7.645,17.067,17.067v256c-0.011,9.421-7.645,17.056-17.067,17.067     H460.8V170.667H477.867z M455.779,153.6h-3.513H56.221L23.035,93.867h465.929L455.779,153.6z M494.933,76.8H460.8V17.067h8.533     c14.132,0.015,25.585,11.468,25.6,25.6V76.8z" data-original="#000000" class="active-path" data-old_color="#72afd2" fill="#72afd2"/>
			<path d="M256,366.933c17.257,0,32.815-10.395,39.419-26.339c6.604-15.943,2.954-34.295-9.249-46.498s-30.554-15.853-46.498-9.249     c-15.943,6.604-26.339,22.162-26.339,39.419C213.361,347.819,232.447,366.906,256,366.933z M264.533,300.239     c10.199,3.592,17.033,13.214,17.067,24.028c-0.033,10.813-6.868,20.435-17.067,24.028V300.239z M247.467,300.239v48.055     c-10.22-3.564-17.067-13.203-17.067-24.027C230.399,313.443,237.246,303.803,247.467,300.239z" data-original="#000000" class="active-path" data-old_color="#72afd2" fill="#72afd2"/>
		</g>
	</g>
</g></g> </svg>
