<?xml version="1.0"?>
<svg xmlns="http://www.w3.org/2000/svg" xmlns:xlink="http://www.w3.org/1999/xlink" version="1.1" id="Capa_1" x="0px" y="0px" viewBox="0 0 407.79 407.79" style="enable-background:new 0 0 407.79 407.79;" xml:space="preserve" width="512px" height="512px"><g><g>
	<g>
		<path d="M344.728,352.146c-3.73-7.489-9.799-13.558-17.288-17.288v-98.96c0-60.8-32-112.96-77.2-134.56l49.12-56    c1.9-2.206,2.451-5.27,1.44-8c-0.4-1.12-11.04-26.72-54-24.48c-11.032-9.516-25.514-14.035-40-12.48    c-0.373-0.028-0.747-0.028-1.12,0c-0.373-0.028-0.747-0.028-1.12,0c-14.699-1.765-29.465,2.702-40.72,12.32    c-42.96-2.08-53.6,23.36-54,24.48c-1.011,2.73-0.46,5.794,1.44,8l48,54.96c-46.32,20.96-79.36,73.68-79.36,135.44v99.28    c-18.903,9.712-26.354,32.909-16.642,51.812s32.909,26.354,51.812,16.642c7.221-3.71,13.084-9.609,16.75-16.854h144    c9.475,19.023,32.577,26.763,51.6,17.288C346.463,394.271,354.203,371.168,344.728,352.146z M127.441,39.418    c4.32-4.88,15.12-12.48,39.2-10.4c2.869,0.247,5.649-1.067,7.28-3.44c0-0.4,8-10.08,29.84-9.28c0.584,0.078,1.176,0.078,1.76,0    c0.584,0.078,1.176,0.078,1.76,0c22.32-0.8,29.52,8.88,29.68,9.12c1.606,2.461,4.432,3.843,7.36,3.6c24-2,34.88,5.6,39.2,10.4    l-49.12,56c-2.88-0.88-5.84-1.6-8.8-2.24l18.24-43.6c1.701-4.087-0.233-8.779-4.32-10.48c-4.087-1.701-8.779,0.233-10.48,4.32    l-19.76,47.44c-1.68,0-3.44,0-5.12,0h-2.32l-12.4-32c-1.591-4.131-6.229-6.191-10.36-4.6s-6.191,6.229-4.6,10.36l10.88,28    c-3.12,0.56-6.24,1.2-9.28,2.08L127.441,39.418z M331.723,376.096c-2.963,9.402-11.706,15.776-21.563,15.722l0.24-0.4    c-9.867-0.047-18.541-6.544-21.36-16c-1.115-3.435-4.393-5.696-8-5.52H126.48c-3.607-0.177-6.885,2.085-8,5.52    c-3.257,11.981-15.609,19.053-27.59,15.796s-19.053-15.609-15.796-27.59c2.067-7.605,7.965-13.571,15.546-15.726    c3.466-1.086,5.766-4.371,5.6-8v-104c0-71.28,48-129.28,107.6-129.28c59.6,0,107.6,57.92,107.6,129.28v104    c-0.166,3.629,2.134,6.914,5.6,8C328.882,351.63,335.455,364.255,331.723,376.096z" data-original="#000000" class="active-path" data-old_color="#72afd2" fill="#72afd2"/>
	</g>
</g><g>
	<g>
		<path d="M248.88,265.658c0.076-4.635-1.325-9.174-4-12.96c-3.102-4.077-7.098-7.388-11.68-9.68h0    c-6.398-3.22-13.169-5.639-20.16-7.2l-1.2,0.08v-24c2.627,1.55,4.935,3.586,6.8,6c1.929,2.575,4.128,4.935,6.56,7.04    c1.972,1.574,4.438,2.396,6.96,2.32c3.171,0.217,6.302-0.817,8.72-2.88c2.039-1.959,3.145-4.695,3.04-7.52    c-0.118-3.071-1.118-6.042-2.88-8.56c-2.101-3.178-4.822-5.899-8-8c-4.219-2.647-8.839-4.592-13.68-5.76    c-2.483-0.498-4.995-0.845-7.52-1.04v-25.44c0-4.418-3.582-8-8-8s-8,3.582-8,8v24.8c-6.114,0.242-12.132,1.598-17.76,4    c-5.729,2.359-10.668,6.299-14.24,11.36c-3.083,4.413-4.756,9.657-4.8,15.04c-0.166,5.467,1.653,10.81,5.12,15.04    c3.762,4.302,8.473,7.67,13.76,9.84c5.747,2.386,11.655,4.364,17.68,5.92v28.24c-2.223-0.492-4.355-1.329-6.32-2.48    c-3.97-2.687-7.213-6.315-9.44-10.56c-1.115-2.143-2.575-4.089-4.32-5.76c-1.794-1.477-4.081-2.22-6.4-2.08    c-2.987-0.13-5.89,1.002-8,3.12c-2.043,1.962-3.174,4.688-3.12,7.52c0.138,4.816,1.852,9.453,4.88,13.2    c3.95,4.925,9.142,8.708,15.04,10.96c5.686,2.319,11.711,3.697,17.84,4.08v21.68c-0.006,4.418,3.571,8.005,7.989,8.011    s8.005-3.571,8.011-7.989c0-0.007,0-0.015,0-0.022v-22.08c5.466-0.46,10.846-1.644,16-3.52    C240.902,292.045,249.54,279.48,248.88,265.658z M195.84,231.258c-3.094-0.89-6.015-2.296-8.64-4.16    c-2.277-1.537-3.606-4.134-3.52-6.88c-0.024-3.355,1.828-6.442,4.8-8c2.255-1.341,4.759-2.212,7.36-2.56V231.258z M223.2,271.498    c-0.144,3.475-2.083,6.626-5.12,8.32c-1.898,1.277-4.012,2.199-6.24,2.72v-24c2.106,0.719,4.141,1.629,6.08,2.72    C221.463,263.41,223.502,267.364,223.2,271.498z" data-original="#000000" class="active-path" data-old_color="#72afd2" fill="#72afd2"/>
	</g>
</g></g> </svg>
