<?xml version="1.0"?>
<svg xmlns="http://www.w3.org/2000/svg" xmlns:xlink="http://www.w3.org/1999/xlink" version="1.1" id="Capa_1" x="0px" y="0px" viewBox="0 0 297 297" style="enable-background:new 0 0 297 297;" xml:space="preserve" width="512px" height="512px" class=""><g><g>
	<path d="M256.478,32.615H40.522C18.179,32.615,0,50.794,0,73.138v181.363c0,5.458,4.426,9.884,9.884,9.884h277.232   c5.458,0,9.884-4.426,9.884-9.884V73.138C297,50.794,278.821,32.615,256.478,32.615z M19.767,133.922H40.77v110.695H19.767V133.922   z M60.536,133.922h45.465v39.04c0,5.458,4.426,9.884,9.884,9.884h65.23c5.459,0,9.884-4.426,9.884-9.884v-39.04h45.465v110.695   H60.536V133.922z M181.115,81.539h-65.23c-5.458,0-9.884,4.426-9.884,9.884v22.731H60.536V52.383h175.928v61.771h-45.465V91.423   C190.999,85.965,186.574,81.539,181.115,81.539z M125.768,101.307h45.465v61.771h-45.465V101.307z M256.231,133.922h21.002v110.695   h-21.002V133.922z M277.233,73.138v41.017h-21.002V52.383h0.246C267.922,52.383,277.233,61.694,277.233,73.138z M40.522,52.383   h0.247v61.771H19.767V73.138C19.767,61.694,29.078,52.383,40.522,52.383z" data-original="#000000" class="active-path" data-old_color="#72afd2" fill="#72afd2"/>
	<path d="M148.501,114.154c-5.458,0-9.884,4.426-9.884,9.884v16.308c0,5.459,4.426,9.884,9.884,9.884   c5.458,0,9.884-4.425,9.884-9.884v-16.308C158.385,118.58,153.959,114.154,148.501,114.154z" data-original="#000000" class="active-path" data-old_color="#72afd2" fill="#72afd2"/>
</g></g> </svg>
