<?xml version="1.0" encoding="iso-8859-1"?>
<!-- Generator: Adobe Illustrator 19.0.0, SVG Export Plug-In . SVG Version: 6.00 Build 0)  -->
<svg version="1.1" id="Layer_1" xmlns="http://www.w3.org/2000/svg" xmlns:xlink="http://www.w3.org/1999/xlink" x="0px" y="0px"
	 viewBox="0 0 512 512" style="enable-background:new 0 0 512 512;" xml:space="preserve">
<g>
	<polygon style="fill:#4FBA6F;" points="256,0 114.759,194.207 211.862,194.207 211.862,300.138 300.138,300.138 300.138,194.207 
		397.241,194.207 	"/>
	<path style="fill:#4FBA6F;" d="M282.483,335.448h-52.966c-9.71,0-17.655,7.945-17.655,17.655s7.945,17.655,17.655,17.655h52.966
		c9.71,0,17.655-7.945,17.655-17.655S292.193,335.448,282.483,335.448"/>
	<path style="fill:#4FBA6F;" d="M282.483,406.069h-52.966c-9.71,0-17.655,7.945-17.655,17.655c0,9.71,7.945,17.655,17.655,17.655
		h52.966c9.71,0,17.655-7.945,17.655-17.655C300.138,414.014,292.193,406.069,282.483,406.069"/>
	<path style="fill:#4FBA6F;" d="M282.483,476.69h-52.966c-9.71,0-17.655,7.945-17.655,17.655c0,9.71,7.945,17.655,17.655,17.655
		h52.966c9.71,0,17.655-7.945,17.655-17.655C300.138,484.634,292.193,476.69,282.483,476.69"/>
</g>
<g>
</g>
<g>
</g>
<g>
</g>
<g>
</g>
<g>
</g>
<g>
</g>
<g>
</g>
<g>
</g>
<g>
</g>
<g>
</g>
<g>
</g>
<g>
</g>
<g>
</g>
<g>
</g>
<g>
</g>
</svg>
