<?xml version="1.0"?>
<svg xmlns="http://www.w3.org/2000/svg" xmlns:xlink="http://www.w3.org/1999/xlink" version="1.1" id="Layer_1" x="0px" y="0px" viewBox="0 0 510.933 510.933" style="enable-background:new 0 0 510.933 510.933;" xml:space="preserve" width="512px" height="512px"><g><g transform="translate(1 1)">
	<g>
		<g>
			<path d="M397.827,189.933L261.293,2.2c-3.413-4.267-10.24-4.267-13.653,0L111.107,189.933c-1.707,2.56-2.56,5.973-0.853,8.533     c1.707,2.56,4.267,4.267,7.68,4.267h85.333V296.6c0,5.12,3.413,8.533,8.533,8.533h85.333c5.12,0,8.533-3.413,8.533-8.533v-93.867     H391c3.413,0,5.973-1.707,7.68-4.267S399.533,192.493,397.827,189.933z M297.133,185.667c-5.12,0-8.533,3.413-8.533,8.533v93.867     h-68.267V194.2c0-5.12-3.413-8.533-8.533-8.533H135L254.467,20.973l119.467,164.693H297.133z" data-original="#000000" class="active-path" data-old_color="#F9F8F8" fill="#FDFCFC"/>
			<path d="M280.067,322.2h-51.2c-14.507,0-25.6,11.093-25.6,25.6c0,14.507,11.093,25.6,25.6,25.6h51.2     c14.507,0,25.6-11.093,25.6-25.6C305.667,333.293,294.573,322.2,280.067,322.2z M280.067,356.333h-51.2     c-5.12,0-8.533-3.413-8.533-8.533s3.413-8.533,8.533-8.533h51.2c5.12,0,8.533,3.413,8.533,8.533S285.187,356.333,280.067,356.333     z" data-original="#000000" class="active-path" data-old_color="#F9F8F8" fill="#FDFCFC"/>
			<path d="M280.067,390.467h-51.2c-14.507,0-25.6,11.093-25.6,25.6s11.093,25.6,25.6,25.6h51.2c14.507,0,25.6-11.093,25.6-25.6     S294.573,390.467,280.067,390.467z M280.067,424.6h-51.2c-5.12,0-8.533-3.413-8.533-8.533s3.413-8.533,8.533-8.533h51.2     c5.12,0,8.533,3.413,8.533,8.533S285.187,424.6,280.067,424.6z" data-original="#000000" class="active-path" data-old_color="#F9F8F8" fill="#FDFCFC"/>
			<path d="M280.067,458.733h-51.2c-14.507,0-25.6,11.093-25.6,25.6s11.093,25.6,25.6,25.6h51.2c14.507,0,25.6-11.093,25.6-25.6     S294.573,458.733,280.067,458.733z M280.067,492.867h-51.2c-5.12,0-8.533-3.413-8.533-8.533s3.413-8.533,8.533-8.533h51.2     c5.12,0,8.533,3.413,8.533,8.533S285.187,492.867,280.067,492.867z" data-original="#000000" class="active-path" data-old_color="#F9F8F8" fill="#FDFCFC"/>
		</g>
	</g>
</g></g> </svg>
